<svg width="105" height="20" viewBox="0 0 105 20" fill="none" xmlns="http://www.w3.org/2000/svg">
<path d="M0 3C0 1.34315 1.34315 0 3 0H102C103.657 0 105 1.34315 105 3V17C105 18.6569 103.657 20 102 20H3C1.34315 20 0 18.6569 0 17V3Z" fill="#FAFAFA"/>
<path d="M12.666 4.5H6.66602C5.97566 4.5 5.41602 5.05964 5.41602 5.75V11.5833C5.41602 12.2737 5.97566 12.8333 6.66602 12.8333H12.666C13.3564 12.8333 13.916 12.2737 13.916 11.5833V5.75C13.916 5.05964 13.3564 4.5 12.666 4.5Z" stroke="black" stroke-width="0.833333"/>
<path d="M15.334 7.16666H9.33398C8.64363 7.16666 8.08398 7.7263 8.08398 8.41666V14.25C8.08398 14.9403 8.64363 15.5 9.33398 15.5H15.334C16.0243 15.5 16.584 14.9403 16.584 14.25V8.41666C16.584 7.7263 16.0243 7.16666 15.334 7.16666Z" stroke="black" stroke-width="0.833333"/>
<path d="M29.4007 10.3636C29.4007 8.03764 28.0086 6.62784 26.1265 6.62784C24.2373 6.62784 22.8488 8.03764 22.8488 10.3636C22.8488 12.6861 24.2373 14.0994 26.1265 14.0994C28.0086 14.0994 29.4007 12.6896 29.4007 10.3636ZM28.314 10.3636C28.314 12.1357 27.3765 13.098 26.1265 13.098C24.873 13.098 23.939 12.1357 23.939 10.3636C23.939 8.59162 24.873 7.62926 26.1265 7.62926C27.3765 7.62926 28.314 8.59162 28.314 10.3636ZM30.6835 16.0455H31.7453V13.1513H31.8092C32.001 13.4993 32.3916 14.1065 33.3859 14.1065C34.7069 14.1065 35.6657 13.0483 35.6657 11.2834C35.6657 9.51491 34.6927 8.47443 33.3753 8.47443C32.3632 8.47443 31.9974 9.09233 31.8092 9.42969H31.7204V8.54545H30.6835V16.0455ZM31.724 11.2727C31.724 10.1328 32.2211 9.37642 33.148 9.37642C34.1104 9.37642 34.5933 10.1896 34.5933 11.2727C34.5933 12.3665 34.0961 13.201 33.148 13.201C32.2354 13.201 31.724 12.4197 31.724 11.2727ZM39.2062 14.1101C40.3959 14.1101 41.2375 13.5241 41.479 12.6364L40.474 12.4553C40.2822 12.9702 39.8206 13.233 39.2169 13.233C38.3078 13.233 37.697 12.6435 37.6686 11.5923H41.5464V11.2159C41.5464 9.24503 40.3675 8.47443 39.1317 8.47443C37.6118 8.47443 36.6104 9.6321 36.6104 11.3082C36.6104 13.0021 37.5976 14.1101 39.2062 14.1101ZM37.6721 10.7969C37.7148 10.0227 38.2758 9.35156 39.1388 9.35156C39.9626 9.35156 40.5024 9.96236 40.5059 10.7969H37.6721ZM43.7863 10.7614C43.7863 9.89134 44.319 9.39418 45.0576 9.39418C45.7785 9.39418 46.2153 9.86648 46.2153 10.6584V14H47.2771V10.5305C47.2771 9.18111 46.5349 8.47443 45.4198 8.47443C44.5995 8.47443 44.0633 8.8544 43.8112 9.43324H43.7437V8.54545H42.7245V14H43.7863V10.7614ZM51.3476 14H52.4094V8.54545H51.3476V14ZM51.8838 7.70384C52.2496 7.70384 52.555 7.41974 52.555 7.07173C52.555 6.72372 52.2496 6.43608 51.8838 6.43608C51.5145 6.43608 51.2126 6.72372 51.2126 7.07173C51.2126 7.41974 51.5145 7.70384 51.8838 7.70384ZM54.8996 10.7614C54.8996 9.89134 55.4323 9.39418 56.1709 9.39418C56.8918 9.39418 57.3286 9.86648 57.3286 10.6584V14H58.3904V10.5305C58.3904 9.18111 57.6482 8.47443 56.5331 8.47443C55.7128 8.47443 55.1766 8.8544 54.9244 9.43324H54.857V8.54545H53.8378V14H54.8996V10.7614Z" fill="#616161"/>
<path d="M68.8635 10.3636C68.8635 8.03764 67.4715 6.62784 65.5894 6.62784C63.7002 6.62784 62.3117 8.03764 62.3117 10.3636C62.3117 12.6861 63.7002 14.0994 65.5894 14.0994C67.4715 14.0994 68.8635 12.6896 68.8635 10.3636ZM67.7769 10.3636C67.7769 12.1357 66.8394 13.098 65.5894 13.098C64.3358 13.098 63.4019 12.1357 63.4019 10.3636C63.4019 8.59162 64.3358 7.62926 65.5894 7.62926C66.8394 7.62926 67.7769 8.59162 67.7769 10.3636ZM70.1464 14H71.2082V10.669C71.2082 9.95526 71.7586 9.44034 72.5115 9.44034C72.7316 9.44034 72.9802 9.4794 73.0654 9.50426V8.48864C72.9589 8.47443 72.7494 8.46378 72.6144 8.46378C71.9752 8.46378 71.4284 8.82599 71.2295 9.41193H71.1727V8.54545H70.1464V14ZM76.0866 14.1101C77.3756 14.1101 78.2101 13.3359 78.3273 12.2741H77.2939C77.159 12.8636 76.7009 13.2116 76.0937 13.2116C75.1952 13.2116 74.6164 12.4624 74.6164 11.2727C74.6164 10.1044 75.2059 9.36932 76.0937 9.36932C76.7684 9.36932 77.1803 9.79545 77.2939 10.3068H78.3273C78.2137 9.20597 77.3153 8.47443 76.0759 8.47443C74.5383 8.47443 73.5439 9.6321 73.5439 11.2976C73.5439 12.9418 74.5028 14.1101 76.0866 14.1101ZM80.5246 10.7614C80.5246 9.89134 81.075 9.39418 81.8314 9.39418C82.5629 9.39418 82.9997 9.85938 82.9997 10.6584V14H84.0615V10.5305C84.0615 9.17045 83.3158 8.47443 82.1936 8.47443C81.3449 8.47443 80.8335 8.84375 80.5779 9.43324H80.5104V6.72727H79.4628V14H80.5246V10.7614ZM87.8293 14.1101C89.0189 14.1101 89.8605 13.5241 90.102 12.6364L89.097 12.4553C88.9053 12.9702 88.4436 13.233 87.8399 13.233C86.9308 13.233 86.32 12.6435 86.2916 11.5923H90.1695V11.2159C90.1695 9.24503 88.9905 8.47443 87.7547 8.47443C86.2348 8.47443 85.2334 9.6321 85.2334 11.3082C85.2334 13.0021 86.2206 14.1101 87.8293 14.1101ZM86.2952 10.7969C86.3378 10.0227 86.8989 9.35156 87.7618 9.35156C88.5857 9.35156 89.1254 9.96236 89.129 10.7969H86.2952ZM95.4349 9.87713C95.2148 9.02841 94.5507 8.47443 93.3717 8.47443C92.1395 8.47443 91.2659 9.12429 91.2659 10.0902C91.2659 10.8643 91.7346 11.3793 92.7574 11.6065L93.6807 11.8089C94.2062 11.9261 94.4513 12.1605 94.4513 12.5014C94.4513 12.924 94.0003 13.2543 93.3042 13.2543C92.6686 13.2543 92.2602 12.9808 92.1324 12.4446L91.1061 12.6009C91.2836 13.5668 92.0862 14.1101 93.3113 14.1101C94.6288 14.1101 95.5415 13.4105 95.5415 12.4233C95.5415 11.6527 95.0514 11.1768 94.05 10.946L93.1835 10.7472C92.5834 10.6051 92.3241 10.4027 92.3277 10.0334C92.3241 9.61435 92.7787 9.31605 93.3824 9.31605C94.0429 9.31605 94.3483 9.68182 94.4726 10.0476L95.4349 9.87713ZM99.2551 8.54545H98.1365V7.23864H97.0747V8.54545H96.2757V9.39773H97.0747V12.6186C97.0711 13.6094 97.8275 14.0888 98.6656 14.071C99.0029 14.0675 99.2302 14.0036 99.3545 13.9574L99.1627 13.0803C99.0917 13.0945 98.9603 13.1264 98.7899 13.1264C98.4454 13.1264 98.1365 13.0128 98.1365 12.3984V9.39773H99.2551V8.54545Z" fill="black"/>
</svg>
