<svg width="107" height="22" viewBox="0 0 107 22" fill="none" xmlns="http://www.w3.org/2000/svg">
<path d="M1 4C1 2.34315 2.34315 1 4 1H103C104.657 1 106 2.34315 106 4V18C106 19.6569 104.657 21 103 21H4C2.34315 21 1 19.6569 1 18V4Z" fill="#FAFAFA"/>
<path d="M13.666 5.5H7.66602C6.97566 5.5 6.41602 6.05964 6.41602 6.75V12.5833C6.41602 13.2737 6.97566 13.8333 7.66602 13.8333H13.666C14.3564 13.8333 14.916 13.2737 14.916 12.5833V6.75C14.916 6.05964 14.3564 5.5 13.666 5.5Z" stroke="black" stroke-width="0.833333"/>
<path d="M16.334 8.16666H10.334C9.64363 8.16666 9.08398 8.7263 9.08398 9.41666V15.25C9.08398 15.9403 9.64363 16.5 10.334 16.5H16.334C17.0243 16.5 17.584 15.9403 17.584 15.25V9.41666C17.584 8.7263 17.0243 8.16666 16.334 8.16666Z" stroke="black" stroke-width="0.833333"/>
<path d="M30.4007 11.3636C30.4007 9.03764 29.0086 7.62784 27.1265 7.62784C25.2373 7.62784 23.8488 9.03764 23.8488 11.3636C23.8488 13.6861 25.2373 15.0994 27.1265 15.0994C29.0086 15.0994 30.4007 13.6896 30.4007 11.3636ZM29.314 11.3636C29.314 13.1357 28.3765 14.098 27.1265 14.098C25.873 14.098 24.939 13.1357 24.939 11.3636C24.939 9.59162 25.873 8.62926 27.1265 8.62926C28.3765 8.62926 29.314 9.59162 29.314 11.3636ZM31.6835 17.0455H32.7453V14.1513H32.8092C33.001 14.4993 33.3916 15.1065 34.3859 15.1065C35.7069 15.1065 36.6657 14.0483 36.6657 12.2834C36.6657 10.5149 35.6927 9.47443 34.3753 9.47443C33.3632 9.47443 32.9974 10.0923 32.8092 10.4297H32.7204V9.54545H31.6835V17.0455ZM32.724 12.2727C32.724 11.1328 33.2211 10.3764 34.148 10.3764C35.1104 10.3764 35.5933 11.1896 35.5933 12.2727C35.5933 13.3665 35.0961 14.201 34.148 14.201C33.2354 14.201 32.724 13.4197 32.724 12.2727ZM40.2062 15.1101C41.3959 15.1101 42.2375 14.5241 42.479 13.6364L41.474 13.4553C41.2822 13.9702 40.8206 14.233 40.2169 14.233C39.3078 14.233 38.697 13.6435 38.6686 12.5923H42.5464V12.2159C42.5464 10.245 41.3675 9.47443 40.1317 9.47443C38.6118 9.47443 37.6104 10.6321 37.6104 12.3082C37.6104 14.0021 38.5976 15.1101 40.2062 15.1101ZM38.6721 11.7969C38.7148 11.0227 39.2758 10.3516 40.1388 10.3516C40.9626 10.3516 41.5024 10.9624 41.5059 11.7969H38.6721ZM44.7863 11.7614C44.7863 10.8913 45.319 10.3942 46.0576 10.3942C46.7785 10.3942 47.2153 10.8665 47.2153 11.6584V15H48.2771V11.5305C48.2771 10.1811 47.5349 9.47443 46.4198 9.47443C45.5995 9.47443 45.0633 9.8544 44.8112 10.4332H44.7437V9.54545H43.7245V15H44.7863V11.7614ZM52.3476 15H53.4094V9.54545H52.3476V15ZM52.8838 8.70384C53.2496 8.70384 53.555 8.41974 53.555 8.07173C53.555 7.72372 53.2496 7.43608 52.8838 7.43608C52.5145 7.43608 52.2126 7.72372 52.2126 8.07173C52.2126 8.41974 52.5145 8.70384 52.8838 8.70384ZM55.8996 11.7614C55.8996 10.8913 56.4323 10.3942 57.1709 10.3942C57.8918 10.3942 58.3286 10.8665 58.3286 11.6584V15H59.3904V11.5305C59.3904 10.1811 58.6482 9.47443 57.5331 9.47443C56.7128 9.47443 56.1766 9.8544 55.9244 10.4332H55.857V9.54545H54.8378V15H55.8996V11.7614Z" fill="#616161"/>
<path d="M69.8635 11.3636C69.8635 9.03764 68.4715 7.62784 66.5894 7.62784C64.7002 7.62784 63.3117 9.03764 63.3117 11.3636C63.3117 13.6861 64.7002 15.0994 66.5894 15.0994C68.4715 15.0994 69.8635 13.6896 69.8635 11.3636ZM68.7769 11.3636C68.7769 13.1357 67.8394 14.098 66.5894 14.098C65.3358 14.098 64.4019 13.1357 64.4019 11.3636C64.4019 9.59162 65.3358 8.62926 66.5894 8.62926C67.8394 8.62926 68.7769 9.59162 68.7769 11.3636ZM71.1464 15H72.2082V11.669C72.2082 10.9553 72.7586 10.4403 73.5115 10.4403C73.7316 10.4403 73.9802 10.4794 74.0654 10.5043V9.48864C73.9589 9.47443 73.7494 9.46378 73.6144 9.46378C72.9752 9.46378 72.4284 9.82599 72.2295 10.4119H72.1727V9.54545H71.1464V15ZM77.0866 15.1101C78.3756 15.1101 79.2101 14.3359 79.3273 13.2741H78.2939C78.159 13.8636 77.7009 14.2116 77.0937 14.2116C76.1952 14.2116 75.6164 13.4624 75.6164 12.2727C75.6164 11.1044 76.2059 10.3693 77.0937 10.3693C77.7684 10.3693 78.1803 10.7955 78.2939 11.3068H79.3273C79.2137 10.206 78.3153 9.47443 77.0759 9.47443C75.5383 9.47443 74.5439 10.6321 74.5439 12.2976C74.5439 13.9418 75.5028 15.1101 77.0866 15.1101ZM81.5246 11.7614C81.5246 10.8913 82.075 10.3942 82.8314 10.3942C83.5629 10.3942 83.9997 10.8594 83.9997 11.6584V15H85.0615V11.5305C85.0615 10.1705 84.3158 9.47443 83.1936 9.47443C82.3449 9.47443 81.8335 9.84375 81.5779 10.4332H81.5104V7.72727H80.4628V15H81.5246V11.7614ZM88.8293 15.1101C90.0189 15.1101 90.8605 14.5241 91.102 13.6364L90.097 13.4553C89.9053 13.9702 89.4436 14.233 88.8399 14.233C87.9308 14.233 87.32 13.6435 87.2916 12.5923H91.1695V12.2159C91.1695 10.245 89.9905 9.47443 88.7547 9.47443C87.2348 9.47443 86.2334 10.6321 86.2334 12.3082C86.2334 14.0021 87.2206 15.1101 88.8293 15.1101ZM87.2952 11.7969C87.3378 11.0227 87.8989 10.3516 88.7618 10.3516C89.5857 10.3516 90.1254 10.9624 90.129 11.7969H87.2952ZM96.4349 10.8771C96.2148 10.0284 95.5507 9.47443 94.3717 9.47443C93.1395 9.47443 92.2659 10.1243 92.2659 11.0902C92.2659 11.8643 92.7346 12.3793 93.7574 12.6065L94.6807 12.8089C95.2062 12.9261 95.4513 13.1605 95.4513 13.5014C95.4513 13.924 95.0003 14.2543 94.3042 14.2543C93.6686 14.2543 93.2602 13.9808 93.1324 13.4446L92.1061 13.6009C92.2836 14.5668 93.0862 15.1101 94.3113 15.1101C95.6288 15.1101 96.5415 14.4105 96.5415 13.4233C96.5415 12.6527 96.0514 12.1768 95.05 11.946L94.1835 11.7472C93.5834 11.6051 93.3241 11.4027 93.3277 11.0334C93.3241 10.6143 93.7787 10.3161 94.3824 10.3161C95.0429 10.3161 95.3483 10.6818 95.4726 11.0476L96.4349 10.8771ZM100.255 9.54545H99.1365V8.23864H98.0747V9.54545H97.2757V10.3977H98.0747V13.6186C98.0711 14.6094 98.8275 15.0888 99.6656 15.071C100.003 15.0675 100.23 15.0036 100.354 14.9574L100.163 14.0803C100.092 14.0945 99.9603 14.1264 99.7899 14.1264C99.4454 14.1264 99.1365 14.0128 99.1365 13.3984V10.3977H100.255V9.54545Z" fill="black"/>
<path d="M4 1.5H103V0.5H4V1.5ZM105.5 4V18H106.5V4H105.5ZM103 20.5H4V21.5H103V20.5ZM1.5 18V4H0.5V18H1.5ZM4 20.5C2.61929 20.5 1.5 19.3807 1.5 18H0.5C0.5 19.933 2.067 21.5 4 21.5V20.5ZM105.5 18C105.5 19.3807 104.381 20.5 103 20.5V21.5C104.933 21.5 106.5 19.933 106.5 18H105.5ZM103 1.5C104.381 1.5 105.5 2.61929 105.5 4H106.5C106.5 2.067 104.933 0.5 103 0.5V1.5ZM4 0.5C2.067 0.5 0.5 2.067 0.5 4H1.5C1.5 2.61929 2.61929 1.5 4 1.5V0.5Z" fill="#E0E0E0"/>
</svg>
